<mxfile host="Electron" agent="Mozilla/5.0 (Macintosh; Intel Mac OS X 10_15_7) AppleWebKit/537.36 (KHTML, like Gecko) draw.io/28.0.4 Chrome/138.0.7204.97 Electron/37.2.1 Safari/537.36" version="28.0.4">
  <diagram name="Page-1" id="PMUEhZMOhUfKYZW5Mhzb">
    <mxGraphModel dx="2131" dy="1471" grid="0" gridSize="10" guides="1" tooltips="1" connect="1" arrows="1" fold="1" page="0" pageScale="1" pageWidth="827" pageHeight="1169" math="0" shadow="0">
      <root>
        <mxCell id="0" />
        <mxCell id="1" parent="0" />
        <mxCell id="vxh-quJ58SCgk4-uSjsG-1" value="{stt_code}-{stm_number}" style="rounded=1;whiteSpace=wrap;html=1;" vertex="1" parent="1">
          <mxGeometry x="40" y="80" width="160" height="40" as="geometry" />
        </mxCell>
        <mxCell id="vxh-quJ58SCgk4-uSjsG-3" value="{sti_name}" style="rounded=1;whiteSpace=wrap;html=1;" vertex="1" parent="1">
          <mxGeometry x="200" y="80" width="680" height="40" as="geometry" />
        </mxCell>
        <mxCell id="vxh-quJ58SCgk4-uSjsG-4" value="&lt;b&gt;associations stm_id / itt_code&lt;/b&gt;&lt;div&gt;from table&amp;nbsp;steps_master_stm_x_iteration_types_itt&lt;/div&gt;" style="rounded=1;whiteSpace=wrap;html=1;dashed=1;strokeColor=#999999;fontColor=#999999;" vertex="1" parent="1">
          <mxGeometry x="190" y="230" width="360" height="40" as="geometry" />
        </mxCell>
        <mxCell id="vxh-quJ58SCgk4-uSjsG-5" value="SCOPE:" style="rounded=0;whiteSpace=wrap;html=1;fillColor=#dae8fc;strokeColor=#6c8ebf;" vertex="1" parent="1">
          <mxGeometry x="40" y="280" width="160" height="40" as="geometry" />
        </mxCell>
        <mxCell id="vxh-quJ58SCgk4-uSjsG-6" value="RUN" style="rounded=0;whiteSpace=wrap;html=1;fillColor=#dae8fc;strokeColor=#6c8ebf;" vertex="1" parent="1">
          <mxGeometry x="240" y="280" width="80" height="40" as="geometry" />
        </mxCell>
        <mxCell id="vxh-quJ58SCgk4-uSjsG-8" value="DR" style="rounded=0;whiteSpace=wrap;html=1;fillColor=#dae8fc;strokeColor=#6c8ebf;" vertex="1" parent="1">
          <mxGeometry x="320" y="280" width="80" height="40" as="geometry" />
        </mxCell>
        <mxCell id="vxh-quJ58SCgk4-uSjsG-9" value="CUTOVER" style="rounded=0;whiteSpace=wrap;html=1;fillColor=#dae8fc;strokeColor=#6c8ebf;" vertex="1" parent="1">
          <mxGeometry x="400" y="280" width="80" height="40" as="geometry" />
        </mxCell>
        <mxCell id="vxh-quJ58SCgk4-uSjsG-10" value="{Y or N}" style="rounded=0;whiteSpace=wrap;html=1;" vertex="1" parent="1">
          <mxGeometry x="240" y="320" width="80" height="40" as="geometry" />
        </mxCell>
        <mxCell id="vxh-quJ58SCgk4-uSjsG-11" value="{Y or N}" style="rounded=0;whiteSpace=wrap;html=1;" vertex="1" parent="1">
          <mxGeometry x="320" y="320" width="80" height="40" as="geometry" />
        </mxCell>
        <mxCell id="vxh-quJ58SCgk4-uSjsG-12" value="{Y or N}" style="rounded=0;whiteSpace=wrap;html=1;" vertex="1" parent="1">
          <mxGeometry x="400" y="320" width="80" height="40" as="geometry" />
        </mxCell>
        <mxCell id="vxh-quJ58SCgk4-uSjsG-13" value="TARGET ENV:" style="rounded=0;whiteSpace=wrap;html=1;fillColor=#dae8fc;strokeColor=#6c8ebf;" vertex="1" parent="1">
          <mxGeometry x="560" y="280" width="160" height="40" as="geometry" />
        </mxCell>
        <mxCell id="vxh-quJ58SCgk4-uSjsG-14" value="{enr_id}" style="rounded=1;whiteSpace=wrap;html=1;" vertex="1" parent="1">
          <mxGeometry x="720" y="280" width="120" height="40" as="geometry" />
        </mxCell>
        <mxCell id="vxh-quJ58SCgk4-uSjsG-15" value="BREADCRUMB:" style="rounded=0;whiteSpace=wrap;html=1;fillColor=#dae8fc;strokeColor=#6c8ebf;" vertex="1" parent="1">
          <mxGeometry x="40" width="160" height="40" as="geometry" />
        </mxCell>
        <mxCell id="vxh-quJ58SCgk4-uSjsG-16" value="{migration} &amp;gt; {plan} &amp;gt;&amp;nbsp;{iteration} &amp;gt;&amp;nbsp;{sequence} &amp;gt;&amp;nbsp;{phase}" style="rounded=1;whiteSpace=wrap;html=1;" vertex="1" parent="1">
          <mxGeometry x="200" width="680" height="40" as="geometry" />
        </mxCell>
        <mxCell id="vxh-quJ58SCgk4-uSjsG-17" value="PRIMARY TEAM" style="rounded=0;whiteSpace=wrap;html=1;fillColor=#dae8fc;strokeColor=#6c8ebf;" vertex="1" parent="1">
          <mxGeometry x="40" y="400" width="160" height="40" as="geometry" />
        </mxCell>
        <mxCell id="vxh-quJ58SCgk4-uSjsG-18" value="IMPACTED TEAMS" style="rounded=0;whiteSpace=wrap;html=1;fillColor=#dae8fc;strokeColor=#6c8ebf;" vertex="1" parent="1">
          <mxGeometry x="400" y="400" width="160" height="40" as="geometry" />
        </mxCell>
        <mxCell id="vxh-quJ58SCgk4-uSjsG-19" value="{tms_id_owner}" style="rounded=1;whiteSpace=wrap;html=1;" vertex="1" parent="1">
          <mxGeometry x="200" y="400" width="160" height="40" as="geometry" />
        </mxCell>
        <mxCell id="vxh-quJ58SCgk4-uSjsG-20" value="Array of {tms_id} from&amp;nbsp;steps_master_stm_x_teams_tms_impacted" style="rounded=1;whiteSpace=wrap;html=1;" vertex="1" parent="1">
          <mxGeometry x="560" y="400" width="280" height="40" as="geometry" />
        </mxCell>
        <mxCell id="vxh-quJ58SCgk4-uSjsG-21" value="STATUS" style="rounded=0;whiteSpace=wrap;html=1;fillColor=#dae8fc;strokeColor=#6c8ebf;" vertex="1" parent="1">
          <mxGeometry x="40" y="160" width="160" height="40" as="geometry" />
        </mxCell>
        <mxCell id="vxh-quJ58SCgk4-uSjsG-22" value="ALLOCATED DURATION" style="rounded=0;whiteSpace=wrap;html=1;fillColor=#dae8fc;strokeColor=#6c8ebf;" vertex="1" parent="1">
          <mxGeometry x="400" y="480" width="160" height="40" as="geometry" />
        </mxCell>
        <mxCell id="vxh-quJ58SCgk4-uSjsG-24" value="{sti_duration_minutes}" style="rounded=1;whiteSpace=wrap;html=1;" vertex="1" parent="1">
          <mxGeometry x="560" y="480" width="160" height="40" as="geometry" />
        </mxCell>
        <mxCell id="vxh-quJ58SCgk4-uSjsG-25" value="START TIME" style="rounded=0;whiteSpace=wrap;html=1;fillColor=#dae8fc;strokeColor=#6c8ebf;" vertex="1" parent="1">
          <mxGeometry x="40" y="560" width="160" height="40" as="geometry" />
        </mxCell>
        <mxCell id="vxh-quJ58SCgk4-uSjsG-26" value="END TIME" style="rounded=0;whiteSpace=wrap;html=1;fillColor=#dae8fc;strokeColor=#6c8ebf;" vertex="1" parent="1">
          <mxGeometry x="360" y="560" width="160" height="40" as="geometry" />
        </mxCell>
        <mxCell id="vxh-quJ58SCgk4-uSjsG-27" value="ACTUAL DURATION" style="rounded=0;whiteSpace=wrap;html=1;fillColor=#dae8fc;strokeColor=#6c8ebf;" vertex="1" parent="1">
          <mxGeometry x="680" y="560" width="160" height="40" as="geometry" />
        </mxCell>
        <mxCell id="vxh-quJ58SCgk4-uSjsG-28" value="{sti_start_time}" style="rounded=1;whiteSpace=wrap;html=1;" vertex="1" parent="1">
          <mxGeometry x="200" y="560" width="120" height="40" as="geometry" />
        </mxCell>
        <mxCell id="vxh-quJ58SCgk4-uSjsG-29" value="{sti_end_time}" style="rounded=1;whiteSpace=wrap;html=1;" vertex="1" parent="1">
          <mxGeometry x="520" y="560" width="120" height="40" as="geometry" />
        </mxCell>
        <mxCell id="vxh-quJ58SCgk4-uSjsG-30" value="calculated" style="rounded=1;whiteSpace=wrap;html=1;" vertex="1" parent="1">
          <mxGeometry x="840" y="560" width="120" height="40" as="geometry" />
        </mxCell>
        <mxCell id="vxh-quJ58SCgk4-uSjsG-31" value="DESCRIPTION" style="rounded=0;whiteSpace=wrap;html=1;fillColor=#dae8fc;strokeColor=#6c8ebf;" vertex="1" parent="1">
          <mxGeometry x="40" y="640" width="160" height="40" as="geometry" />
        </mxCell>
        <mxCell id="vxh-quJ58SCgk4-uSjsG-32" value="{sti_description}" style="rounded=1;whiteSpace=wrap;html=1;" vertex="1" parent="1">
          <mxGeometry x="200" y="640" width="800" height="160" as="geometry" />
        </mxCell>
        <mxCell id="vxh-quJ58SCgk4-uSjsG-33" value="INSTRUCTIONS (by order)" style="rounded=0;whiteSpace=wrap;html=1;fillColor=#dae8fc;strokeColor=#6c8ebf;" vertex="1" parent="1">
          <mxGeometry x="40" y="840" width="240" height="40" as="geometry" />
        </mxCell>
        <mxCell id="vxh-quJ58SCgk4-uSjsG-34" value="##" style="rounded=0;whiteSpace=wrap;html=1;fillColor=#dae8fc;strokeColor=#6c8ebf;" vertex="1" parent="1">
          <mxGeometry x="40" y="880" width="80" height="40" as="geometry" />
        </mxCell>
        <mxCell id="vxh-quJ58SCgk4-uSjsG-35" value="Description" style="rounded=0;whiteSpace=wrap;html=1;fillColor=#dae8fc;strokeColor=#6c8ebf;" vertex="1" parent="1">
          <mxGeometry x="120" y="880" width="400" height="40" as="geometry" />
        </mxCell>
        <mxCell id="vxh-quJ58SCgk4-uSjsG-36" value="Team" style="rounded=0;whiteSpace=wrap;html=1;fillColor=#dae8fc;strokeColor=#6c8ebf;" vertex="1" parent="1">
          <mxGeometry x="520" y="880" width="120" height="40" as="geometry" />
        </mxCell>
        <mxCell id="vxh-quJ58SCgk4-uSjsG-37" value="Control" style="rounded=0;whiteSpace=wrap;html=1;fillColor=#dae8fc;strokeColor=#6c8ebf;" vertex="1" parent="1">
          <mxGeometry x="640" y="880" width="120" height="40" as="geometry" />
        </mxCell>
        <mxCell id="vxh-quJ58SCgk4-uSjsG-38" value="Duration" style="rounded=0;whiteSpace=wrap;html=1;fillColor=#dae8fc;strokeColor=#6c8ebf;" vertex="1" parent="1">
          <mxGeometry x="760" y="880" width="120" height="40" as="geometry" />
        </mxCell>
        <mxCell id="vxh-quJ58SCgk4-uSjsG-39" value="Done Check" style="rounded=0;whiteSpace=wrap;html=1;fillColor=#dae8fc;strokeColor=#6c8ebf;" vertex="1" parent="1">
          <mxGeometry x="880" y="880" width="120" height="40" as="geometry" />
        </mxCell>
        <mxCell id="vxh-quJ58SCgk4-uSjsG-40" value="{ini_order}" style="rounded=1;whiteSpace=wrap;html=1;" vertex="1" parent="1">
          <mxGeometry x="40" y="920" width="80" height="40" as="geometry" />
        </mxCell>
        <mxCell id="vxh-quJ58SCgk4-uSjsG-43" value="{ini_body}" style="rounded=1;whiteSpace=wrap;html=1;" vertex="1" parent="1">
          <mxGeometry x="120" y="920" width="400" height="40" as="geometry" />
        </mxCell>
        <mxCell id="vxh-quJ58SCgk4-uSjsG-44" value="{tms_id}" style="rounded=1;whiteSpace=wrap;html=1;" vertex="1" parent="1">
          <mxGeometry x="520" y="920" width="120" height="40" as="geometry" />
        </mxCell>
        <mxCell id="vxh-quJ58SCgk4-uSjsG-45" value="{cti_id}" style="rounded=1;whiteSpace=wrap;html=1;" vertex="1" parent="1">
          <mxGeometry x="640" y="920" width="120" height="40" as="geometry" />
        </mxCell>
        <mxCell id="vxh-quJ58SCgk4-uSjsG-46" value="{ini_duration_minutes}" style="rounded=1;whiteSpace=wrap;html=1;" vertex="1" parent="1">
          <mxGeometry x="760" y="920" width="120" height="40" as="geometry" />
        </mxCell>
        <mxCell id="vxh-quJ58SCgk4-uSjsG-48" value="PREDECESSOR" style="rounded=0;whiteSpace=wrap;html=1;fillColor=#dae8fc;strokeColor=#6c8ebf;" vertex="1" parent="1">
          <mxGeometry x="400" y="160" width="160" height="40" as="geometry" />
        </mxCell>
        <mxCell id="vxh-quJ58SCgk4-uSjsG-49" value="{sti_id_predecessor}" style="rounded=1;whiteSpace=wrap;html=1;" vertex="1" parent="1">
          <mxGeometry x="560" y="160" width="160" height="40" as="geometry" />
        </mxCell>
        <mxCell id="vxh-quJ58SCgk4-uSjsG-50" value="Predecessor status" style="rounded=1;whiteSpace=wrap;html=1;" vertex="1" parent="1">
          <mxGeometry x="720" y="160" width="160" height="40" as="geometry" />
        </mxCell>
        <mxCell id="vxh-quJ58SCgk4-uSjsG-51" value="{ini_order}" style="rounded=1;whiteSpace=wrap;html=1;" vertex="1" parent="1">
          <mxGeometry x="40" y="960" width="80" height="40" as="geometry" />
        </mxCell>
        <mxCell id="vxh-quJ58SCgk4-uSjsG-52" value="{ini_body}" style="rounded=1;whiteSpace=wrap;html=1;" vertex="1" parent="1">
          <mxGeometry x="120" y="960" width="400" height="40" as="geometry" />
        </mxCell>
        <mxCell id="vxh-quJ58SCgk4-uSjsG-53" value="{tms_id}" style="rounded=1;whiteSpace=wrap;html=1;" vertex="1" parent="1">
          <mxGeometry x="520" y="960" width="120" height="40" as="geometry" />
        </mxCell>
        <mxCell id="vxh-quJ58SCgk4-uSjsG-54" value="{cti_id}" style="rounded=1;whiteSpace=wrap;html=1;" vertex="1" parent="1">
          <mxGeometry x="640" y="960" width="120" height="40" as="geometry" />
        </mxCell>
        <mxCell id="vxh-quJ58SCgk4-uSjsG-55" value="{ini_duration_minutes}" style="rounded=1;whiteSpace=wrap;html=1;" vertex="1" parent="1">
          <mxGeometry x="760" y="960" width="120" height="40" as="geometry" />
        </mxCell>
        <mxCell id="vxh-quJ58SCgk4-uSjsG-57" value="{ini_order}" style="rounded=1;whiteSpace=wrap;html=1;" vertex="1" parent="1">
          <mxGeometry x="40" y="1000" width="80" height="40" as="geometry" />
        </mxCell>
        <mxCell id="vxh-quJ58SCgk4-uSjsG-58" value="{ini_body}" style="rounded=1;whiteSpace=wrap;html=1;" vertex="1" parent="1">
          <mxGeometry x="120" y="1000" width="400" height="40" as="geometry" />
        </mxCell>
        <mxCell id="vxh-quJ58SCgk4-uSjsG-59" value="{tms_id}" style="rounded=1;whiteSpace=wrap;html=1;" vertex="1" parent="1">
          <mxGeometry x="520" y="1000" width="120" height="40" as="geometry" />
        </mxCell>
        <mxCell id="vxh-quJ58SCgk4-uSjsG-60" value="{cti_id}" style="rounded=1;whiteSpace=wrap;html=1;" vertex="1" parent="1">
          <mxGeometry x="640" y="1000" width="120" height="40" as="geometry" />
        </mxCell>
        <mxCell id="vxh-quJ58SCgk4-uSjsG-61" value="{ini_duration_minutes}" style="rounded=1;whiteSpace=wrap;html=1;" vertex="1" parent="1">
          <mxGeometry x="760" y="1000" width="120" height="40" as="geometry" />
        </mxCell>
        <mxCell id="vxh-quJ58SCgk4-uSjsG-63" value="COMMENTS (Moest recent first)" style="rounded=0;whiteSpace=wrap;html=1;fillColor=#dae8fc;strokeColor=#6c8ebf;" vertex="1" parent="1">
          <mxGeometry x="40" y="1080" width="240" height="40" as="geometry" />
        </mxCell>
        <mxCell id="vxh-quJ58SCgk4-uSjsG-64" value="{comment_body}" style="rounded=1;whiteSpace=wrap;html=1;" vertex="1" parent="1">
          <mxGeometry x="40" y="1160" width="600" height="80" as="geometry" />
        </mxCell>
        <mxCell id="vxh-quJ58SCgk4-uSjsG-65" value="{created_by}" style="rounded=1;whiteSpace=wrap;html=1;" vertex="1" parent="1">
          <mxGeometry x="640" y="1160" width="120" height="40" as="geometry" />
        </mxCell>
        <mxCell id="vxh-quJ58SCgk4-uSjsG-66" value="{created_at}" style="rounded=1;whiteSpace=wrap;html=1;" vertex="1" parent="1">
          <mxGeometry x="760" y="1160" width="120" height="40" as="geometry" />
        </mxCell>
        <mxCell id="vxh-quJ58SCgk4-uSjsG-67" value="{updated_by}" style="rounded=1;whiteSpace=wrap;html=1;" vertex="1" parent="1">
          <mxGeometry x="640" y="1200" width="120" height="40" as="geometry" />
        </mxCell>
        <mxCell id="vxh-quJ58SCgk4-uSjsG-68" value="{updated_at}" style="rounded=1;whiteSpace=wrap;html=1;" vertex="1" parent="1">
          <mxGeometry x="760" y="1200" width="120" height="40" as="geometry" />
        </mxCell>
        <mxCell id="vxh-quJ58SCgk4-uSjsG-69" value="{comment_body}" style="rounded=1;whiteSpace=wrap;html=1;" vertex="1" parent="1">
          <mxGeometry x="40" y="1280" width="600" height="80" as="geometry" />
        </mxCell>
        <mxCell id="vxh-quJ58SCgk4-uSjsG-70" value="{created_by}" style="rounded=1;whiteSpace=wrap;html=1;" vertex="1" parent="1">
          <mxGeometry x="640" y="1280" width="120" height="40" as="geometry" />
        </mxCell>
        <mxCell id="vxh-quJ58SCgk4-uSjsG-71" value="{created_at}" style="rounded=1;whiteSpace=wrap;html=1;" vertex="1" parent="1">
          <mxGeometry x="760" y="1280" width="120" height="40" as="geometry" />
        </mxCell>
        <mxCell id="vxh-quJ58SCgk4-uSjsG-72" value="{updated_by}" style="rounded=1;whiteSpace=wrap;html=1;" vertex="1" parent="1">
          <mxGeometry x="640" y="1320" width="120" height="40" as="geometry" />
        </mxCell>
        <mxCell id="vxh-quJ58SCgk4-uSjsG-73" value="{updated_at}" style="rounded=1;whiteSpace=wrap;html=1;" vertex="1" parent="1">
          <mxGeometry x="760" y="1320" width="120" height="40" as="geometry" />
        </mxCell>
        <mxCell id="vxh-quJ58SCgk4-uSjsG-74" value="NEW COMMENT" style="rounded=1;whiteSpace=wrap;html=1;fillColor=#d80073;strokeColor=#A50040;fontColor=#ffffff;fontStyle=1" vertex="1" parent="1">
          <mxGeometry x="320" y="1080" width="160" height="40" as="geometry" />
        </mxCell>
        <mxCell id="vxh-quJ58SCgk4-uSjsG-75" value="EDIT" style="rounded=1;whiteSpace=wrap;html=1;fillColor=#d80073;strokeColor=#A50040;fontColor=#ffffff;fontStyle=1" vertex="1" parent="1">
          <mxGeometry x="900" y="1160" width="100" height="40" as="geometry" />
        </mxCell>
        <mxCell id="vxh-quJ58SCgk4-uSjsG-76" value="DELETE" style="rounded=1;whiteSpace=wrap;html=1;fillColor=#d80073;strokeColor=#A50040;fontColor=#ffffff;fontStyle=1" vertex="1" parent="1">
          <mxGeometry x="900" y="1200" width="100" height="40" as="geometry" />
        </mxCell>
        <mxCell id="vxh-quJ58SCgk4-uSjsG-77" value="EDIT" style="rounded=1;whiteSpace=wrap;html=1;fillColor=#d80073;strokeColor=#A50040;fontColor=#ffffff;fontStyle=1" vertex="1" parent="1">
          <mxGeometry x="900" y="1280" width="100" height="40" as="geometry" />
        </mxCell>
        <mxCell id="vxh-quJ58SCgk4-uSjsG-78" value="DELETE" style="rounded=1;whiteSpace=wrap;html=1;fillColor=#d80073;strokeColor=#A50040;fontColor=#ffffff;fontStyle=1" vertex="1" parent="1">
          <mxGeometry x="900" y="1320" width="100" height="40" as="geometry" />
        </mxCell>
        <mxCell id="vxh-quJ58SCgk4-uSjsG-79" value="{STI_STATUS}" style="rounded=1;whiteSpace=wrap;html=1;fillColor=#d80073;strokeColor=#A50040;fontColor=#ffffff;fontStyle=1" vertex="1" parent="1">
          <mxGeometry x="200" y="160" width="160" height="40" as="geometry" />
        </mxCell>
        <mxCell id="vxh-quJ58SCgk4-uSjsG-80" value="{INI_IS_COMPLETE}" style="rounded=1;whiteSpace=wrap;html=1;fillColor=#d80073;strokeColor=#A50040;fontColor=#ffffff;fontStyle=1" vertex="1" parent="1">
          <mxGeometry x="880" y="920" width="120" height="40" as="geometry" />
        </mxCell>
        <mxCell id="vxh-quJ58SCgk4-uSjsG-81" value="{INI_IS_COMPLETE}" style="rounded=1;whiteSpace=wrap;html=1;fillColor=#d80073;strokeColor=#A50040;fontColor=#ffffff;fontStyle=1" vertex="1" parent="1">
          <mxGeometry x="880" y="960" width="120" height="40" as="geometry" />
        </mxCell>
        <mxCell id="vxh-quJ58SCgk4-uSjsG-82" value="{INI_IS_COMPLETE}" style="rounded=1;whiteSpace=wrap;html=1;fillColor=#d80073;strokeColor=#A50040;fontColor=#ffffff;fontStyle=1" vertex="1" parent="1">
          <mxGeometry x="880" y="1000" width="120" height="40" as="geometry" />
        </mxCell>
      </root>
    </mxGraphModel>
  </diagram>
</mxfile>
